# Blender 3.6.10
# www.blender.org
mtllib chest.mtl
o cube
v 0.437500 0.062500 0.437500
v 0.437500 0.062500 -0.437500
v 0.437500 -0.500000 0.437500
v 0.437500 -0.500000 -0.437500
v -0.437500 0.062500 -0.437500
v -0.437500 0.062500 0.437500
v -0.437500 -0.500000 -0.437500
v -0.437500 -0.500000 0.437500
vn -0.0000 -0.0000 -1.0000
vn 1.0000 -0.0000 -0.0000
vn -0.0000 -0.0000 1.0000
vn -1.0000 -0.0000 -0.0000
vn -0.0000 -1.0000 -0.0000
vt 0.656250 0.484375
vt 0.875000 0.343750
vt 0.875000 0.484375
vt 0.000000 0.484375
vt 0.218750 0.343750
vt 0.218750 0.484375
vt 0.437500 0.343750
vt 0.437500 0.484375
vt 0.656250 0.343750
vt 0.218750 0.703125
vt 0.437500 0.703125
vt 0.000000 0.343750
s 0
usemtl m_67bc8881-b13d-66df-8e37-edb0f64600fe
f 7/1/1 2/2/1 4/3/1
f 4/4/2 1/5/2 3/6/2
f 3/6/3 6/7/3 8/8/3
f 8/8/4 5/9/4 7/1/4
f 7/1/1 5/9/1 2/2/1
f 4/10/5 8/8/5 7/11/5
f 4/4/2 2/12/2 1/5/2
f 3/6/3 1/5/3 6/7/3
f 8/8/4 6/7/4 5/9/4
f 4/10/5 3/6/5 8/8/5
o cube.001
v 0.437500 0.375000 0.437500
v 0.437500 0.375000 -0.437500
v 0.437500 0.062500 0.437500
v 0.437500 0.062500 -0.437500
v -0.437500 0.375000 -0.437500
v -0.437500 0.375000 0.437500
v -0.437500 0.062500 -0.437500
v -0.437500 0.062500 0.437500
vn -0.0000 -0.0000 -1.0000
vn 1.0000 -0.0000 -0.0000
vn -0.0000 -0.0000 1.0000
vn -1.0000 -0.0000 -0.0000
vn -0.0000 1.0000 -0.0000
vt 0.656250 0.781250
vt 0.875000 0.703125
vt 0.875000 0.781250
vt 0.000000 0.781250
vt 0.218750 0.703125
vt 0.218750 0.781250
vt 0.437500 0.703125
vt 0.437500 0.781250
vt 0.656250 0.703125
vt 0.437500 1.000000
vt 0.656250 1.000000
vt 0.000000 0.703125
s 0
usemtl m_67bc8881-b13d-66df-8e37-edb0f64600fe
f 15/13/6 10/14/6 12/15/6
f 12/16/7 9/17/7 11/18/7
f 11/18/8 14/19/8 16/20/8
f 16/20/9 13/21/9 15/13/9
f 9/22/10 13/13/10 14/23/10
f 15/13/6 13/21/6 10/14/6
f 12/16/7 10/24/7 9/17/7
f 11/18/8 9/17/8 14/19/8
f 16/20/9 14/19/9 13/21/9
f 9/22/10 10/20/10 13/13/10
o cube.002
v 0.062500 0.250000 -0.437500
v 0.062500 0.250000 -0.500000
v 0.062500 -0.000000 -0.437500
v 0.062500 -0.000000 -0.500000
v -0.062500 0.250000 -0.500000
v -0.062500 0.250000 -0.437500
v -0.062500 -0.000000 -0.500000
v -0.062500 -0.000000 -0.437500
vn -0.0000 -0.0000 -1.0000
vn 1.0000 -0.0000 -0.0000
vn -1.0000 -0.0000 -0.0000
vn -0.0000 1.0000 -0.0000
vn -0.0000 -1.0000 -0.0000
vt 0.015625 0.984375
vt 0.046875 0.921875
vt 0.046875 0.984375
vt 0.031250 0.984375
vt 0.015625 0.921875
vt 0.000000 0.984375
vt 0.015625 1.000000
vt 0.046875 1.000000
vt 0.031250 0.921875
vt 0.000000 0.921875
s 0
usemtl m_67bc8881-b13d-66df-8e37-edb0f64600fe
f 23/25/11 18/26/11 20/27/11
f 20/28/12 17/26/12 19/27/12
f 23/25/11 21/29/11 18/26/11
f 24/30/13 21/29/13 23/25/13
f 17/31/14 21/27/14 22/32/14
f 20/31/15 24/27/15 23/32/15
f 20/28/12 18/33/12 17/26/12
f 24/30/13 22/34/13 21/29/13
f 17/31/14 18/25/14 21/27/14
f 20/31/15 19/25/15 24/27/15
