# Blender 3.6.10
# www.blender.org
mtllib chest_left.mtl
o cube
v 0.437500 0.062500 0.437500
v 0.437500 0.062500 -0.437500
v 0.437500 -0.500000 0.437500
v 0.437500 -0.500000 -0.437500
v -0.500000 0.062500 -0.437500
v -0.500000 0.062500 0.437500
v -0.500000 -0.500000 -0.437500
v -0.500000 -0.500000 0.437500
vn -0.0000 -0.0000 -1.0000
vn 1.0000 -0.0000 -0.0000
vn -0.0000 -0.0000 1.0000
vn -1.0000 -0.0000 -0.0000
vn -0.0000 -1.0000 -0.0000
vt 0.906250 0.484375
vt 0.671875 0.343750
vt 0.671875 0.484375
vt 0.453125 0.484375
vt 0.218750 0.343750
vt 0.218750 0.484375
vt 0.906250 0.343750
vt 0.687500 0.781250
vt 0.453125 1.000000
vt 0.453125 0.781250
vt 0.453125 0.343750
vt 0.687500 1.000000
s 0
usemtl m_3528b6bd-aa91-8b72-c921-4592057b726b
f 7/1/1 2/2/1 4/3/1
f 4/4/2 1/2/2 3/3/2
f 3/4/3 6/5/3 8/6/3
f 8/4/4 5/2/4 7/3/4
f 7/1/1 5/7/1 2/2/1
f 4/8/5 8/9/5 7/10/5
f 4/4/2 2/11/2 1/2/2
f 3/4/3 1/11/3 6/5/3
f 8/4/4 6/11/4 5/2/4
f 4/8/5 3/12/5 8/9/5
o cube.001
v 0.437500 0.375000 0.437500
v 0.437500 0.375000 -0.437500
v 0.437500 0.062500 0.437500
v 0.437500 0.062500 -0.437500
v -0.500000 0.375000 -0.437500
v -0.500000 0.375000 0.437500
v -0.500000 0.062500 -0.437500
v -0.500000 0.062500 0.437500
vn -0.0000 -0.0000 -1.0000
vn 1.0000 -0.0000 -0.0000
vn -0.0000 -0.0000 1.0000
vn -1.0000 -0.0000 -0.0000
vn -0.0000 1.0000 -0.0000
vt 0.906250 0.781250
vt 0.671875 0.703125
vt 0.671875 0.781250
vt 0.453125 0.781250
vt 0.453125 0.703125
vt 0.218750 0.781250
vt 0.218750 0.703125
vt 0.453125 0.484375
vt 0.218750 0.484375
vt 0.906250 0.703125
s 0
usemtl m_3528b6bd-aa91-8b72-c921-4592057b726b
f 15/13/6 10/14/6 12/15/6
f 12/16/7 9/14/7 11/15/7
f 11/17/8 14/18/8 16/19/8
f 16/17/9 13/15/9 15/14/9
f 9/20/10 13/19/10 14/21/10
f 15/13/6 13/22/6 10/14/6
f 12/16/7 10/17/7 9/14/7
f 11/17/8 9/16/8 14/18/8
f 16/17/9 14/16/9 13/15/9
f 9/20/10 10/17/10 13/19/10
o cube.002
v -0.437500 0.250000 -0.437500
v -0.437500 0.250000 -0.500000
v -0.437500 -0.000000 -0.437500
v -0.437500 -0.000000 -0.500000
v -0.500000 0.250000 -0.500000
v -0.500000 0.250000 -0.437500
v -0.500000 -0.000000 -0.500000
v -0.500000 -0.000000 -0.437500
vn -0.0000 -0.0000 -1.0000
vn 1.0000 -0.0000 -0.0000
vn -1.0000 -0.0000 -0.0000
vn -0.0000 1.0000 -0.0000
vn -0.0000 -1.0000 -0.0000
vt 0.015625 0.984375
vt 0.031250 0.921875
vt 0.031250 0.984375
vt 0.015625 0.921875
vt 0.015625 1.000000
vt 0.031250 1.000000
vt 0.046875 0.984375
vt 0.046875 1.000000
s 0
usemtl m_3528b6bd-aa91-8b72-c921-4592057b726b
f 23/23/11 18/24/11 20/25/11
f 20/23/12 17/24/12 19/25/12
f 23/23/11 21/26/11 18/24/11
f 24/23/13 21/24/13 23/25/13
f 17/27/14 21/25/14 22/28/14
f 20/27/15 24/29/15 23/30/15
f 20/23/12 18/26/12 17/24/12
f 24/23/13 22/26/13 21/24/13
f 17/27/14 18/23/14 21/25/14
f 20/27/15 19/23/15 24/29/15
