# Blender 3.6.10
# www.blender.org
mtllib fire_model_clipped.mtl
o firemiddle1
v 0.495560 0.920717 -0.322795
v 0.495560 -0.479293 0.257109
v -0.493514 0.920717 -0.322795
v -0.493514 -0.479293 0.257109
vn -0.0000 0.3827 0.9239
vt 1.000000 0.000000
vt 0.000000 1.000000
vt 0.000000 0.000000
vt 1.000000 1.000000
s 0
usemtl fire
f 2/1/1 3/2/1 4/3/1
f 2/1/1 1/4/1 3/2/1
o firemiddle2
v 0.494973 0.920717 0.322794
v 0.494973 -0.479293 -0.257109
v -0.493928 0.920717 0.322794
v -0.493928 -0.479293 -0.257109
vn -0.0000 0.3827 -0.9239
vt 1.000000 0.000000
vt 0.000000 1.000000
vt 0.000000 0.000000
vt 1.000000 1.000000
s 0
usemtl fire
f 8/5/2 5/6/2 6/7/2
f 8/5/2 7/8/2 5/6/2
o firemiddle3
v 0.422795 0.879296 -0.494950
v 0.422795 0.879296 0.493038
v -0.157108 -0.520714 -0.494949
v -0.157108 -0.520714 0.493038
vn -0.9239 0.3827 -0.0000
vt 1.000000 0.000000
vt 0.000000 1.000000
vt 0.000000 0.000000
vt 1.000000 1.000000
s 0
usemtl fire
f 12/9/3 9/10/3 11/11/3
f 12/9/3 10/12/3 9/10/3
o firemiddle4
v -0.422795 0.879296 0.486142
v -0.422795 0.879296 -0.487142
v 0.157108 -0.520714 0.486142
v 0.157108 -0.520714 -0.487142
vn 0.9239 0.3827 -0.0000
vt 1.000000 0.000000
vt 0.000000 1.000000
vt 0.000000 0.000000
vt 1.000000 1.000000
s 0
usemtl fire
f 16/13/4 13/14/4 15/15/4
f 16/13/4 14/16/4 13/14/4
o fireside1
v -0.499375 0.900000 -0.500000
v -0.499375 0.900000 -0.500000
v -0.499375 -0.500000 -0.500000
v -0.499375 -0.500000 -0.500000
v -0.499375 0.900000 0.500000
v -0.499375 0.900000 0.500000
v -0.499375 -0.500000 0.500000
v -0.499375 -0.500000 0.500000
vn -1.0000 -0.0000 -0.0000
vt 1.000000 0.000000
vt 0.000000 1.000000
vt 0.000000 0.000000
vt 1.000000 1.000000
s 0
usemtl fire
f 23/17/5 18/18/5 20/19/5
f 23/17/5 21/20/5 18/18/5
l 17 19
l 17 22
l 19 24
l 22 24
o fireside1.001
v 0.500000 0.900000 -0.499375
v 0.500000 0.900000 -0.499375
v 0.500000 -0.500000 -0.499375
v 0.500000 -0.500000 -0.499375
v -0.500000 0.900000 -0.499375
v -0.500000 0.900000 -0.499375
v -0.500000 -0.500000 -0.499375
v -0.500000 -0.500000 -0.499375
vn -0.0000 -0.0000 -1.0000
vt 1.000000 0.000000
vt 0.000000 1.000000
vt 0.000000 0.000000
vt 1.000000 1.000000
s 0
usemtl fire
f 31/21/6 26/22/6 28/23/6
f 31/21/6 29/24/6 26/22/6
l 25 27
l 27 30
l 27 32
l 30 32
l 25 30
o fireside1.002
v -0.500000 0.900000 0.499375
v -0.500000 0.900000 0.499375
v -0.500000 -0.500000 0.499375
v -0.500000 -0.500000 0.499375
v 0.500000 0.900000 0.499375
v 0.500000 0.900000 0.499375
v 0.500000 -0.500000 0.499375
v 0.500000 -0.500000 0.499375
vn -0.0000 -0.0000 1.0000
vt 1.000000 0.000000
vt 0.000000 1.000000
vt 0.000000 0.000000
vt 1.000000 1.000000
s 0
usemtl fire
f 39/25/7 34/26/7 36/27/7
f 39/25/7 37/28/7 34/26/7
l 33 35
l 35 38
l 35 40
l 38 40
l 33 38
o fireside1.003
v 0.499375 0.900000 0.500000
v 0.499375 0.900000 0.500000
v 0.499375 -0.500000 0.500000
v 0.499375 -0.500000 0.500000
v 0.499375 0.900000 -0.500000
v 0.499375 0.900000 -0.500000
v 0.499375 -0.500000 -0.500000
v 0.499375 -0.500000 -0.500000
vn 1.0000 -0.0000 -0.0000
vt 1.000000 0.000000
vt 0.000000 1.000000
vt 0.000000 0.000000
vt 1.000000 1.000000
s 0
usemtl fire
f 47/29/8 42/30/8 44/31/8
f 47/29/8 45/32/8 42/30/8
l 41 43
l 43 46
l 43 48
l 46 48
l 41 46
