# Blender 3.6.10
# www.blender.org
mtllib stairs.mtl
o cube
v 0.500000 0.000000 0.500000
v 0.500000 -0.000000 -0.500000
v 0.500000 -0.500000 0.500000
v 0.500000 -0.500000 -0.500000
v -0.500000 -0.000000 -0.500000
v -0.500000 0.000000 0.500000
v -0.500000 -0.500000 -0.500000
v -0.500000 -0.500000 0.500000
vn -0.0000 -0.0000 -1.0000
vn 1.0000 -0.0000 -0.0000
vn -0.0000 -0.0000 1.0000
vn -1.0000 -0.0000 -0.0000
vn -0.0000 1.0000 -0.0000
vn -0.0000 -1.0000 -0.0000
vt 1.000000 0.000000
vt 0.000000 0.500000
vt 0.000000 0.000000
vt 0.000000 1.000000
vt 1.000000 0.500000
vt 1.000000 1.000000
s 0
usemtl m_11aa5d61-8c20-ba44-2863-dfc4d952a409
f 7/1/1 2/2/1 4/3/1
f 4/1/2 1/2/2 3/3/2
f 3/1/3 6/2/3 8/3/3
f 8/1/4 5/2/4 7/3/4
f 1/1/5 5/4/5 6/3/5
f 4/1/6 8/4/6 7/3/6
f 7/1/1 5/5/1 2/2/1
f 4/1/2 2/5/2 1/2/2
f 3/1/3 1/5/3 6/2/3
f 8/1/4 6/5/4 5/2/4
f 1/1/5 2/6/5 5/4/5
f 4/1/6 3/6/6 8/4/6
o cube.001
v 0.500000 0.500000 0.500000
v 0.500000 0.500000 -0.500000
v 0.500000 0.000000 0.500000
v 0.500000 -0.000000 -0.500000
v 0.000000 0.500000 -0.500000
v 0.000000 0.500000 0.500000
v 0.000000 -0.000000 -0.500000
v 0.000000 0.000000 0.500000
vn -0.0000 -0.0000 -1.0000
vn 1.0000 -0.0000 -0.0000
vn -0.0000 -0.0000 1.0000
vn -1.0000 -0.0000 -0.0000
vn -0.0000 1.0000 -0.0000
vt 0.500000 0.500000
vt 0.000000 1.000000
vt 0.000000 0.500000
vt 1.000000 0.500000
vt 0.500000 1.000000
vt 1.000000 0.000000
vt 0.500000 0.000000
vt 1.000000 1.000000
s 0
usemtl m_11aa5d61-8c20-ba44-2863-dfc4d952a409
f 15/7/7 10/8/7 12/9/7
f 12/10/8 9/8/8 11/9/8
f 11/10/9 14/11/9 16/7/9
f 16/10/10 13/8/10 15/9/10
f 9/12/11 13/11/11 14/13/11
f 15/7/7 13/11/7 10/8/7
f 12/10/8 10/14/8 9/8/8
f 11/10/9 9/14/9 14/11/9
f 16/10/10 14/14/10 13/8/10
f 9/12/11 10/14/11 13/11/11
